<?xml version="1.0" encoding="UTF-8"?>
<!DOCTYPE svg
PUBLIC "-//W3C//DTD SVG 1.1//EN"
       "http://www.w3.org/Graphics/SVG/1.1/DTD/svg11.dtd">
<svg width="1000px" height="1000px" xmlns="http://www.w3.org/2000/svg" version="1.1">
   <line x1="220" y1="154" x2="210" y2="154" style="fill:grey;stroke:black;stroke-width:2;"/>
   <line x1="198" y1="142" x2="188" y2="142" style="fill:grey;stroke:black;stroke-width:2;"/>
   <line x1="210" y1="154" x2="198" y2="142" style="fill:grey;stroke:grey;stroke-width:1;"/>
   <line x1="212.5" y1="154" x2="216.03553390593" y2="157.53553390593" style="fill:grey;stroke:black;stroke-width:2;"/>
   <line x1="212.5" y1="154" x2="216.03553390593" y2="150.46446609407" style="fill:grey;stroke:black;stroke-width:2;"/>
   <line x1="193" y1="142" x2="196.53553390593" y2="145.53553390593" style="fill:grey;stroke:black;stroke-width:2;"/>
   <line x1="193" y1="142" x2="196.53553390593" y2="138.46446609407" style="fill:grey;stroke:black;stroke-width:2;"/>
   <line x1="220" y1="174" x2="210" y2="174" style="fill:cyan;stroke:black;stroke-width:2;"/>
   <line x1="198" y1="142" x2="188" y2="142" style="fill:cyan;stroke:black;stroke-width:2;"/>
   <line x1="210" y1="174" x2="198" y2="142" style="fill:cyan;stroke:cyan;stroke-width:1;"/>
   <line x1="212.5" y1="174" x2="216.03553390593" y2="177.53553390593" style="fill:cyan;stroke:black;stroke-width:2;"/>
   <line x1="212.5" y1="174" x2="216.03553390593" y2="170.46446609407" style="fill:cyan;stroke:black;stroke-width:2;"/>
   <line x1="193" y1="142" x2="196.53553390593" y2="145.53553390593" style="fill:cyan;stroke:black;stroke-width:2;"/>
   <line x1="193" y1="142" x2="196.53553390593" y2="138.46446609407" style="fill:cyan;stroke:black;stroke-width:2;"/>
   <line x1="108" y1="209" x2="118" y2="209" style="fill:grey;stroke:black;stroke-width:2;"/>
   <line x1="89" y1="142" x2="99" y2="142" style="fill:grey;stroke:black;stroke-width:2;"/>
   <line x1="118" y1="209" x2="89" y2="142" style="fill:grey;stroke:grey;stroke-width:1;"/>
   <line x1="115.5" y1="209" x2="111.96446609407" y2="212.53553390593" style="fill:grey;stroke:black;stroke-width:2;"/>
   <line x1="115.5" y1="209" x2="111.96446609407" y2="205.46446609407" style="fill:grey;stroke:black;stroke-width:2;"/>
   <line x1="94" y1="142" x2="90.464466094067" y2="145.53553390593" style="fill:grey;stroke:black;stroke-width:2;"/>
   <line x1="94" y1="142" x2="90.464466094067" y2="138.46446609407" style="fill:grey;stroke:black;stroke-width:2;"/>
   <line x1="232" y1="212" x2="242" y2="212" style="fill:cyan;stroke:black;stroke-width:2;"/>
   <line x1="198" y1="142" x2="188" y2="142" style="fill:cyan;stroke:black;stroke-width:2;"/>
   <line x1="242" y1="212" x2="198" y2="142" style="fill:cyan;stroke:cyan;stroke-width:1;"/>
   <line x1="239.5" y1="212" x2="235.96446609407" y2="215.53553390593" style="fill:cyan;stroke:black;stroke-width:2;"/>
   <line x1="239.5" y1="212" x2="235.96446609407" y2="208.46446609407" style="fill:cyan;stroke:black;stroke-width:2;"/>
   <line x1="193" y1="142" x2="196.53553390593" y2="145.53553390593" style="fill:cyan;stroke:black;stroke-width:2;"/>
   <line x1="193" y1="142" x2="196.53553390593" y2="138.46446609407" style="fill:cyan;stroke:black;stroke-width:2;"/>
   <line x1="232" y1="232" x2="242" y2="232" style="fill:yellow;stroke:black;stroke-width:2;"/>
   <line x1="198" y1="142" x2="188" y2="142" style="fill:yellow;stroke:black;stroke-width:2;"/>
   <line x1="242" y1="232" x2="198" y2="142" style="fill:yellow;stroke:yellow;stroke-width:1;"/>
   <line x1="239.5" y1="232" x2="235.96446609407" y2="235.53553390593" style="fill:yellow;stroke:black;stroke-width:2;"/>
   <line x1="239.5" y1="232" x2="235.96446609407" y2="228.46446609407" style="fill:yellow;stroke:black;stroke-width:2;"/>
   <line x1="193" y1="142" x2="196.53553390593" y2="145.53553390593" style="fill:yellow;stroke:black;stroke-width:2;"/>
   <line x1="193" y1="142" x2="196.53553390593" y2="138.46446609407" style="fill:yellow;stroke:black;stroke-width:2;"/>
   <line x1="203" y1="130" x2="193" y2="130" style="fill:grey;stroke:black;stroke-width:2;"/>
   <line x1="219" y1="60" x2="209" y2="60" style="fill:grey;stroke:black;stroke-width:2;"/>
   <line x1="193" y1="130" x2="219" y2="60" style="fill:grey;stroke:grey;stroke-width:1;"/>
   <line x1="195.5" y1="130" x2="199.03553390593" y2="133.53553390593" style="fill:grey;stroke:black;stroke-width:2;"/>
   <line x1="195.5" y1="130" x2="199.03553390593" y2="126.46446609407" style="fill:grey;stroke:black;stroke-width:2;"/>
   <line x1="214" y1="60" x2="217.53553390593" y2="63.535533905933" style="fill:grey;stroke:black;stroke-width:2;"/>
   <line x1="214" y1="60" x2="217.53553390593" y2="56.464466094067" style="fill:grey;stroke:black;stroke-width:2;"/>
   <line x1="203" y1="150" x2="193" y2="150" style="fill:red;stroke:black;stroke-width:2;"/>
   <line x1="198" y1="142" x2="188" y2="142" style="fill:red;stroke:black;stroke-width:2;"/>
   <line x1="193" y1="150" x2="198" y2="142" style="fill:red;stroke:red;stroke-width:1;"/>
   <line x1="195.5" y1="150" x2="199.03553390593" y2="153.53553390593" style="fill:red;stroke:black;stroke-width:2;"/>
   <line x1="195.5" y1="150" x2="199.03553390593" y2="146.46446609407" style="fill:red;stroke:black;stroke-width:2;"/>
   <line x1="193" y1="142" x2="196.53553390593" y2="145.53553390593" style="fill:red;stroke:black;stroke-width:2;"/>
   <line x1="193" y1="142" x2="196.53553390593" y2="138.46446609407" style="fill:red;stroke:black;stroke-width:2;"/>
   <line x1="80" y1="96" x2="90" y2="96" style="fill:yellow;stroke:black;stroke-width:2;"/>
   <line x1="73" y1="76" x2="83" y2="76" style="fill:yellow;stroke:black;stroke-width:2;"/>
   <line x1="90" y1="96" x2="73" y2="76" style="fill:yellow;stroke:yellow;stroke-width:1;"/>
   <line x1="87.5" y1="96" x2="83.964466094067" y2="99.535533905933" style="fill:yellow;stroke:black;stroke-width:2;"/>
   <line x1="87.5" y1="96" x2="83.964466094067" y2="92.464466094067" style="fill:yellow;stroke:black;stroke-width:2;"/>
   <line x1="78" y1="76" x2="74.464466094067" y2="79.535533905933" style="fill:yellow;stroke:black;stroke-width:2;"/>
   <line x1="78" y1="76" x2="74.464466094067" y2="72.464466094067" style="fill:yellow;stroke:black;stroke-width:2;"/>
   <line x1="80" y1="116" x2="90" y2="116" style="fill:black;stroke:black;stroke-width:2;"/>
   <line x1="89" y1="142" x2="99" y2="142" style="fill:black;stroke:black;stroke-width:2;"/>
   <line x1="90" y1="116" x2="89" y2="142" style="fill:black;stroke:black;stroke-width:1;"/>
   <line x1="87.5" y1="116" x2="83.964466094067" y2="119.53553390593" style="fill:black;stroke:black;stroke-width:2;"/>
   <line x1="87.5" y1="116" x2="83.964466094067" y2="112.46446609407" style="fill:black;stroke:black;stroke-width:2;"/>
   <line x1="94" y1="142" x2="90.464466094067" y2="145.53553390593" style="fill:black;stroke:black;stroke-width:2;"/>
   <line x1="94" y1="142" x2="90.464466094067" y2="138.46446609407" style="fill:black;stroke:black;stroke-width:2;"/>
   <line x1="3" y1="136" x2="-7" y2="136" style="fill:cyan;stroke:black;stroke-width:2;"/>
   <line x1="1" y1="169" x2="11" y2="169" style="fill:cyan;stroke:black;stroke-width:2;"/>
   <line x1="-7" y1="136" x2="1" y2="169" style="fill:cyan;stroke:cyan;stroke-width:1;"/>
   <line x1="-4.5" y1="136" x2="-0.96446609406726" y2="139.53553390593" style="fill:cyan;stroke:black;stroke-width:2;"/>
   <line x1="-4.5" y1="136" x2="-0.96446609406726" y2="132.46446609407" style="fill:cyan;stroke:black;stroke-width:2;"/>
   <line x1="6" y1="169" x2="2.4644660940673" y2="172.53553390593" style="fill:cyan;stroke:black;stroke-width:2;"/>
   <line x1="6" y1="169" x2="2.4644660940673" y2="165.46446609407" style="fill:cyan;stroke:black;stroke-width:2;"/>
   <line x1="83" y1="96" x2="73" y2="96" style="fill:green;stroke:black;stroke-width:2;"/>
   <line x1="118" y1="169" x2="108" y2="169" style="fill:green;stroke:black;stroke-width:2;"/>
   <line x1="73" y1="96" x2="118" y2="169" style="fill:green;stroke:green;stroke-width:1;"/>
   <line x1="75.5" y1="96" x2="79.035533905933" y2="99.535533905933" style="fill:green;stroke:black;stroke-width:2;"/>
   <line x1="75.5" y1="96" x2="79.035533905933" y2="92.464466094067" style="fill:green;stroke:black;stroke-width:2;"/>
   <line x1="113" y1="169" x2="116.53553390593" y2="172.53553390593" style="fill:green;stroke:black;stroke-width:2;"/>
   <line x1="113" y1="169" x2="116.53553390593" y2="165.46446609407" style="fill:green;stroke:black;stroke-width:2;"/>
   <line x1="83" y1="116" x2="73" y2="116" style="fill:cyan;stroke:black;stroke-width:2;"/>
   <line x1="89" y1="142" x2="99" y2="142" style="fill:cyan;stroke:black;stroke-width:2;"/>
   <line x1="73" y1="116" x2="89" y2="142" style="fill:cyan;stroke:cyan;stroke-width:1;"/>
   <line x1="75.5" y1="116" x2="79.035533905933" y2="119.53553390593" style="fill:cyan;stroke:black;stroke-width:2;"/>
   <line x1="75.5" y1="116" x2="79.035533905933" y2="112.46446609407" style="fill:cyan;stroke:black;stroke-width:2;"/>
   <line x1="94" y1="142" x2="90.464466094067" y2="145.53553390593" style="fill:cyan;stroke:black;stroke-width:2;"/>
   <line x1="94" y1="142" x2="90.464466094067" y2="138.46446609407" style="fill:cyan;stroke:black;stroke-width:2;"/>
   <line x1="230" y1="68" x2="220" y2="68" style="fill:black;stroke:black;stroke-width:2;"/>
   <line x1="198" y1="142" x2="188" y2="142" style="fill:black;stroke:black;stroke-width:2;"/>
   <line x1="220" y1="68" x2="198" y2="142" style="fill:black;stroke:black;stroke-width:1;"/>
   <line x1="222.5" y1="68" x2="226.03553390593" y2="71.535533905933" style="fill:black;stroke:black;stroke-width:2;"/>
   <line x1="222.5" y1="68" x2="226.03553390593" y2="64.464466094067" style="fill:black;stroke:black;stroke-width:2;"/>
   <line x1="193" y1="142" x2="196.53553390593" y2="145.53553390593" style="fill:black;stroke:black;stroke-width:2;"/>
   <line x1="193" y1="142" x2="196.53553390593" y2="138.46446609407" style="fill:black;stroke:black;stroke-width:2;"/>
   <rect width="103" height="20" x="220" y="124" style="fill:red;stroke:black;"/>
   <text width="103" height="20" x="225" y="138" style="fill:none;stroke:black;" font-family="Arial" font-size="16px"> Relationships</text>
   <rect width="103" height="20" x="220" y="144" style="fill:#0c0;stroke:black;"/>
   <text width="103" height="20" x="225" y="158" style="fill:none;stroke:black;" font-family="Arial" font-size="16px">user_1</text>
   <rect width="103" height="20" x="220" y="164" style="fill:none;stroke:black;"/>
   <text width="103" height="20" x="225" y="178" style="fill:none;stroke:black;" font-family="Arial" font-size="16px">user_2</text>
   <rect width="103" height="20" x="220" y="184" style="fill:none;stroke:black;"/>
   <text width="103" height="20" x="225" y="198" style="fill:none;stroke:black;" font-family="Arial" font-size="16px">last_action</text>
   <rect width="103" height="20" x="220" y="204" style="fill:none;stroke:black;"/>
   <text width="103" height="20" x="225" y="218" style="fill:none;stroke:black;" font-family="Arial" font-size="16px">status</text>
   <rect width="89" height="20" x="99" y="112" style="fill:red;stroke:black;"/>
   <text width="89" height="20" x="104" y="126" style="fill:none;stroke:black;" font-family="Arial" font-size="16px"> Users</text>
   <rect width="89" height="20" x="99" y="132" style="fill:#0c0;stroke:black;"/>
   <text width="89" height="20" x="104" y="146" style="fill:none;stroke:black;" font-family="Arial" font-size="16px">id</text>
   <rect width="89" height="20" x="99" y="152" style="fill:none;stroke:black;"/>
   <text width="89" height="20" x="104" y="166" style="fill:none;stroke:black;" font-family="Arial" font-size="16px">name</text>
   <rect width="89" height="20" x="99" y="172" style="fill:none;stroke:black;"/>
   <text width="89" height="20" x="104" y="186" style="fill:none;stroke:black;" font-family="Arial" font-size="16px">sex</text>
   <rect width="89" height="20" x="99" y="192" style="fill:none;stroke:black;"/>
   <text width="89" height="20" x="104" y="206" style="fill:none;stroke:black;" font-family="Arial" font-size="16px">dob</text>
   <rect width="89" height="20" x="99" y="212" style="fill:none;stroke:black;"/>
   <text width="89" height="20" x="104" y="226" style="fill:none;stroke:black;" font-family="Arial" font-size="16px">location</text>
   <rect width="89" height="20" x="99" y="232" style="fill:none;stroke:black;"/>
   <text width="89" height="20" x="104" y="246" style="fill:none;stroke:black;" font-family="Arial" font-size="16px">education</text>
   <rect width="89" height="20" x="99" y="252" style="fill:none;stroke:black;"/>
   <text width="89" height="20" x="104" y="266" style="fill:none;stroke:black;" font-family="Arial" font-size="16px">date_joined</text>
   <rect width="89" height="20" x="99" y="272" style="fill:none;stroke:black;"/>
   <text width="89" height="20" x="104" y="286" style="fill:none;stroke:black;" font-family="Arial" font-size="16px">email</text>
   <rect width="89" height="20" x="99" y="292" style="fill:none;stroke:black;"/>
   <text width="89" height="20" x="104" y="306" style="fill:none;stroke:black;" font-family="Arial" font-size="16px">password</text>
   <rect width="89" height="20" x="99" y="312" style="fill:none;stroke:black;"/>
   <text width="89" height="20" x="104" y="326" style="fill:none;stroke:black;" font-family="Arial" font-size="16px">privacy</text>
   <rect width="89" height="20" x="99" y="332" style="fill:none;stroke:black;"/>
   <text width="89" height="20" x="104" y="346" style="fill:none;stroke:black;" font-family="Arial" font-size="16px">lastActive</text>
   <rect width="97" height="20" x="11" y="139" style="fill:red;stroke:black;"/>
   <text width="97" height="20" x="16" y="153" style="fill:none;stroke:black;" font-family="Arial" font-size="16px"> album</text>
   <rect width="97" height="20" x="11" y="159" style="fill:#0c0;stroke:black;"/>
   <text width="97" height="20" x="16" y="173" style="fill:none;stroke:black;" font-family="Arial" font-size="16px">albumID</text>
   <rect width="97" height="20" x="11" y="179" style="fill:none;stroke:black;"/>
   <text width="97" height="20" x="16" y="193" style="fill:none;stroke:black;" font-family="Arial" font-size="16px">albumName</text>
   <rect width="97" height="20" x="11" y="199" style="fill:none;stroke:black;"/>
   <text width="97" height="20" x="16" y="213" style="fill:none;stroke:black;" font-family="Arial" font-size="16px">userID</text>
   <rect width="97" height="20" x="11" y="219" style="fill:none;stroke:black;"/>
   <text width="97" height="20" x="16" y="233" style="fill:none;stroke:black;" font-family="Arial" font-size="16px">viewStatus</text>
   <rect width="97" height="20" x="11" y="239" style="fill:none;stroke:black;"/>
   <text width="97" height="20" x="16" y="253" style="fill:none;stroke:black;" font-family="Arial" font-size="16px">date</text>
   <rect width="75" height="20" x="157" y="162" style="fill:red;stroke:black;"/>
   <text width="75" height="20" x="162" y="176" style="fill:none;stroke:black;" font-family="Arial" font-size="16px"> chat</text>
   <rect width="75" height="20" x="157" y="182" style="fill:#0c0;stroke:black;"/>
   <text width="75" height="20" x="162" y="196" style="fill:none;stroke:black;" font-family="Arial" font-size="16px">id</text>
   <rect width="75" height="20" x="157" y="202" style="fill:none;stroke:black;"/>
   <text width="75" height="20" x="162" y="216" style="fill:none;stroke:black;" font-family="Arial" font-size="16px">from</text>
   <rect width="75" height="20" x="157" y="222" style="fill:none;stroke:black;"/>
   <text width="75" height="20" x="162" y="236" style="fill:none;stroke:black;" font-family="Arial" font-size="16px">to</text>
   <rect width="75" height="20" x="157" y="242" style="fill:none;stroke:black;"/>
   <text width="75" height="20" x="162" y="256" style="fill:none;stroke:black;" font-family="Arial" font-size="16px">message</text>
   <rect width="75" height="20" x="157" y="262" style="fill:none;stroke:black;"/>
   <text width="75" height="20" x="162" y="276" style="fill:none;stroke:black;" font-family="Arial" font-size="16px">sent</text>
   <rect width="75" height="20" x="157" y="282" style="fill:none;stroke:black;"/>
   <text width="75" height="20" x="162" y="296" style="fill:none;stroke:black;" font-family="Arial" font-size="16px">recd</text>
   <rect width="133" height="20" x="203" y="80" style="fill:red;stroke:black;"/>
   <text width="133" height="20" x="208" y="94" style="fill:none;stroke:black;" font-family="Arial" font-size="16px"> circlemembership</text>
   <rect width="133" height="20" x="203" y="100" style="fill:#0c0;stroke:black;"/>
   <text width="133" height="20" x="208" y="114" style="fill:none;stroke:black;" font-family="Arial" font-size="16px">id</text>
   <rect width="133" height="20" x="203" y="120" style="fill:none;stroke:black;"/>
   <text width="133" height="20" x="208" y="134" style="fill:none;stroke:black;" font-family="Arial" font-size="16px">circleID</text>
   <rect width="133" height="20" x="203" y="140" style="fill:none;stroke:black;"/>
   <text width="133" height="20" x="208" y="154" style="fill:none;stroke:black;" font-family="Arial" font-size="16px">userID</text>
   <rect width="57" height="20" x="152" y="30" style="fill:red;stroke:black;"/>
   <text width="57" height="20" x="157" y="44" style="fill:none;stroke:black;" font-family="Arial" font-size="16px"> circles</text>
   <rect width="57" height="20" x="152" y="50" style="fill:#0c0;stroke:black;"/>
   <text width="57" height="20" x="157" y="64" style="fill:none;stroke:black;" font-family="Arial" font-size="16px">id</text>
   <rect width="57" height="20" x="152" y="70" style="fill:none;stroke:black;"/>
   <text width="57" height="20" x="157" y="84" style="fill:none;stroke:black;" font-family="Arial" font-size="16px">name</text>
   <rect width="77" height="20" x="3" y="46" style="fill:red;stroke:black;"/>
   <text width="77" height="20" x="8" y="60" style="fill:none;stroke:black;" font-family="Arial" font-size="16px"> comment</text>
   <rect width="77" height="20" x="3" y="66" style="fill:none;stroke:black;"/>
   <text width="77" height="20" x="8" y="80" style="fill:none;stroke:black;" font-family="Arial" font-size="16px">id</text>
   <rect width="77" height="20" x="3" y="86" style="fill:none;stroke:black;"/>
   <text width="77" height="20" x="8" y="100" style="fill:none;stroke:black;" font-family="Arial" font-size="16px">photoID</text>
   <rect width="77" height="20" x="3" y="106" style="fill:none;stroke:black;"/>
   <text width="77" height="20" x="8" y="120" style="fill:none;stroke:black;" font-family="Arial" font-size="16px">userID</text>
   <rect width="77" height="20" x="3" y="126" style="fill:none;stroke:black;"/>
   <text width="77" height="20" x="8" y="140" style="fill:none;stroke:black;" font-family="Arial" font-size="16px">albumID</text>
   <rect width="77" height="20" x="3" y="146" style="fill:none;stroke:black;"/>
   <text width="77" height="20" x="8" y="160" style="fill:none;stroke:black;" font-family="Arial" font-size="16px">content</text>
   <rect width="77" height="20" x="3" y="166" style="fill:none;stroke:black;"/>
   <text width="77" height="20" x="8" y="180" style="fill:none;stroke:black;" font-family="Arial" font-size="16px">date</text>
   <rect width="70" height="20" x="83" y="46" style="fill:red;stroke:black;"/>
   <text width="70" height="20" x="88" y="60" style="fill:none;stroke:black;" font-family="Arial" font-size="16px"> photo</text>
   <rect width="70" height="20" x="83" y="66" style="fill:#0c0;stroke:black;"/>
   <text width="70" height="20" x="88" y="80" style="fill:none;stroke:black;" font-family="Arial" font-size="16px">photoID</text>
   <rect width="70" height="20" x="83" y="86" style="fill:none;stroke:black;"/>
   <text width="70" height="20" x="88" y="100" style="fill:none;stroke:black;" font-family="Arial" font-size="16px">albumID</text>
   <rect width="70" height="20" x="83" y="106" style="fill:none;stroke:black;"/>
   <text width="70" height="20" x="88" y="120" style="fill:none;stroke:black;" font-family="Arial" font-size="16px">userID</text>
   <rect width="70" height="20" x="83" y="126" style="fill:none;stroke:black;"/>
   <text width="70" height="20" x="88" y="140" style="fill:none;stroke:black;" font-family="Arial" font-size="16px">refLoc</text>
   <rect width="70" height="20" x="83" y="146" style="fill:none;stroke:black;"/>
   <text width="70" height="20" x="88" y="160" style="fill:none;stroke:black;" font-family="Arial" font-size="16px">date</text>
   <rect width="62" height="20" x="230" y="18" style="fill:red;stroke:black;"/>
   <text width="62" height="20" x="235" y="32" style="fill:none;stroke:black;" font-family="Arial" font-size="16px"> posts</text>
   <rect width="62" height="20" x="230" y="38" style="fill:#0c0;stroke:black;"/>
   <text width="62" height="20" x="235" y="52" style="fill:none;stroke:black;" font-family="Arial" font-size="16px">id</text>
   <rect width="62" height="20" x="230" y="58" style="fill:none;stroke:black;"/>
   <text width="62" height="20" x="235" y="72" style="fill:none;stroke:black;" font-family="Arial" font-size="16px">user_id</text>
   <rect width="62" height="20" x="230" y="78" style="fill:none;stroke:black;"/>
   <text width="62" height="20" x="235" y="92" style="fill:none;stroke:black;" font-family="Arial" font-size="16px">title</text>
   <rect width="62" height="20" x="230" y="98" style="fill:none;stroke:black;"/>
   <text width="62" height="20" x="235" y="112" style="fill:none;stroke:black;" font-family="Arial" font-size="16px">content</text>
   <rect width="62" height="20" x="230" y="118" style="fill:none;stroke:black;"/>
   <text width="62" height="20" x="235" y="132" style="fill:none;stroke:black;" font-family="Arial" font-size="16px">date</text>
</svg>
